<svg width="1420" height="790" xmlns="http://www.w3.org/2000/svg"><g><path d="M-26,-46L-46,48L22,-28Z" fill="#faf8fb" stroke="#faf8fb"/><path d="M-26,-46L22,-28L121,-35Z" fill="#f5f4f9" stroke="#f5f4f9"/><path d="M-26,-46L121,-35L166,-45Z" fill="#f0f1f8" stroke="#f0f1f8"/><path d="M-26,-46L166,-45L444,-52Z" fill="#e6eaf4" stroke="#e6eaf4"/><path d="M22,-28L-46,48L43,22Z" fill="#f6f6fb" stroke="#f6f6fb"/><path d="M22,-28L43,22L121,-35Z" fill="#f3f3f8" stroke="#f3f3f8"/><path d="M121,-35L43,22L102,25Z" fill="#f0f1f7" stroke="#f0f1f7"/><path d="M121,-35L102,25L171,47Z" fill="#ebeef6" stroke="#ebeef6"/><path d="M121,-35L171,47L166,-45Z" fill="#eaedf5" stroke="#eaedf5"/><path d="M166,-45L171,47L247,-39Z" fill="#e6eaf4" stroke="#e6eaf4"/><path d="M166,-45L247,-39L444,-52Z" fill="#dee4f0" stroke="#dee4f0"/><path d="M247,-39L171,47L240,47Z" fill="#e3e7f3" stroke="#e3e7f3"/><path d="M247,-39L240,47L296,53Z" fill="#dee5f1" stroke="#dee5f1"/><path d="M247,-39L296,53L329,-25Z" fill="#dde4f0" stroke="#dde4f0"/><path d="M247,-39L329,-25L444,-52Z" fill="#d7e1ee" stroke="#d7e1ee"/><path d="M329,-25L296,53L366,45Z" fill="#d6e1ef" stroke="#d6e1ef"/><path d="M329,-25L366,45L400,-21Z" fill="#d4e0ee" stroke="#d4e0ee"/><path d="M329,-25L400,-21L444,-52Z" fill="#d0deed" stroke="#d0deed"/><path d="M400,-21L366,45L446,34Z" fill="#cddcec" stroke="#cddcec"/><path d="M400,-21L446,34L444,-52Z" fill="#cbdcec" stroke="#cbdcec"/><path d="M444,-52L446,34L505,-33Z" fill="#c7daeb" stroke="#c7daeb"/><path d="M444,-52L505,-33L583,-30Z" fill="#c1d7e9" stroke="#c1d7e9"/><path d="M444,-52L583,-30L721,-37Z" fill="#b8d4e7" stroke="#b8d4e7"/><path d="M444,-52L721,-37L816,-42Z" fill="#aed0e4" stroke="#aed0e4"/><path d="M444,-52L816,-42L1277,-55Z" fill="#96c6df" stroke="#96c6df"/><path d="M505,-33L446,34L509,45Z" fill="#c3d8ea" stroke="#c3d8ea"/><path d="M505,-33L509,45L583,-30Z" fill="#bed6e8" stroke="#bed6e8"/><path d="M583,-30L509,45L586,41Z" fill="#b9d4e8" stroke="#b9d4e8"/><path d="M583,-30L586,41L649,-20Z" fill="#b5d2e6" stroke="#b5d2e6"/><path d="M583,-30L649,-20L721,-37Z" fill="#afd0e5" stroke="#afd0e5"/><path d="M649,-20L586,41L666,43Z" fill="#afd0e5" stroke="#afd0e5"/><path d="M649,-20L666,43L721,-37Z" fill="#accfe4" stroke="#accfe4"/><path d="M721,-37L666,43L716,52Z" fill="#a7cce3" stroke="#a7cce3"/><path d="M721,-37L716,52L824,16Z" fill="#a1cae2" stroke="#a1cae2"/><path d="M721,-37L824,16L816,-42Z" fill="#9ec9e1" stroke="#9ec9e1"/><path d="M816,-42L824,16L891,-32Z" fill="#96c6df" stroke="#96c6df"/><path d="M816,-42L891,-32L932,-33Z" fill="#93c3dc" stroke="#93c3dc"/><path d="M816,-42L932,-33L1277,-55Z" fill="#8bb8d1" stroke="#8bb8d1"/><path d="M891,-32L824,16L866,33Z" fill="#94c5de" stroke="#94c5de"/><path d="M891,-32L866,33L932,-33Z" fill="#92c2db" stroke="#92c2db"/><path d="M932,-33L866,33L958,50Z" fill="#8fbfd9" stroke="#8fbfd9"/><path d="M932,-33L958,50L1006,33Z" fill="#8cbbd5" stroke="#8cbbd5"/><path d="M932,-33L1006,33L1031,-29Z" fill="#8cbad3" stroke="#8cbad3"/><path d="M932,-33L1031,-29L1089,-32Z" fill="#8ab7d0" stroke="#8ab7d0"/><path d="M932,-33L1089,-32L1277,-55Z" fill="#84b0c9" stroke="#84b0c9"/><path d="M1031,-29L1006,33L1083,43Z" fill="#87b5cf" stroke="#87b5cf"/><path d="M1031,-29L1083,43L1089,-32Z" fill="#86b3cc" stroke="#86b3cc"/><path d="M1089,-32L1083,43L1160,36Z" fill="#82aec8" stroke="#82aec8"/><path d="M1089,-32L1160,36L1168,-18Z" fill="#82acc6" stroke="#82acc6"/><path d="M1089,-32L1168,-18L1277,-55Z" fill="#80a9c3" stroke="#80a9c3"/><path d="M1168,-18L1160,36L1234,47Z" fill="#7ea7c2" stroke="#7ea7c2"/><path d="M1168,-18L1234,47L1243,-29Z" fill="#80a6bf" stroke="#80a6bf"/><path d="M1168,-18L1243,-29L1277,-55Z" fill="#80a5be" stroke="#80a5be"/><path d="M1243,-29L1234,47L1314,37Z" fill="#7ea1bb" stroke="#7ea1bb"/><path d="M1243,-29L1314,37L1277,-55Z" fill="#80a0ba" stroke="#80a0ba"/><path d="M1277,-55L1314,37L1376,-40Z" fill="#809cb6" stroke="#809cb6"/><path d="M1277,-55L1376,-40L1450,-43Z" fill="#8098b2" stroke="#8098b2"/><path d="M1376,-40L1314,37L1378,32Z" fill="#7f99b3" stroke="#7f99b3"/><path d="M1376,-40L1378,32L1440,21Z" fill="#7f96b0" stroke="#7f96b0"/><path d="M1376,-40L1440,21L1450,-43Z" fill="#8094ae" stroke="#8094ae"/><path d="M1450,-43L1440,21L1514,-18Z" fill="#8090aa" stroke="#8090aa"/><path d="M1514,-18L1440,21L1511,17Z" fill="#7f8da8" stroke="#7f8da8"/><path d="M1514,-18L1511,17L1524,107Z" fill="#7c8aa5" stroke="#7c8aa5"/><path d="M-46,48L-55,91L21,86Z" fill="#f4f5fc" stroke="#f4f5fc"/><path d="M-46,48L21,86L43,22Z" fill="#f3f4fb" stroke="#f3f4fb"/><path d="M43,22L21,86L102,25Z" fill="#eff1f9" stroke="#eff1f9"/><path d="M102,25L21,86L90,123Z" fill="#eaeff8" stroke="#eaeff8"/><path d="M102,25L90,123L171,47Z" fill="#e7ecf6" stroke="#e7ecf6"/><path d="M171,47L90,123L178,113Z" fill="#e2e9f5" stroke="#e2e9f5"/><path d="M171,47L178,113L240,47Z" fill="#e0e6f3" stroke="#e0e6f3"/><path d="M240,47L178,113L230,118Z" fill="#dbe4f3" stroke="#dbe4f3"/><path d="M240,47L230,118L296,53Z" fill="#dae3f1" stroke="#dae3f1"/><path d="M296,53L230,118L316,111Z" fill="#d6e0f0" stroke="#d6e0f0"/><path d="M296,53L316,111L366,45Z" fill="#d2deef" stroke="#d2deef"/><path d="M366,45L316,111L393,118Z" fill="#ccdcee" stroke="#ccdcee"/><path d="M366,45L393,118L446,34Z" fill="#c9dbed" stroke="#c9dbed"/><path d="M446,34L393,118L463,103Z" fill="#c3d8eb" stroke="#c3d8eb"/><path d="M446,34L463,103L509,45Z" fill="#c0d7ea" stroke="#c0d7ea"/><path d="M509,45L463,103L507,100Z" fill="#bbd4ea" stroke="#bbd4ea"/><path d="M509,45L507,100L586,41Z" fill="#b8d3e8" stroke="#b8d3e8"/><path d="M586,41L507,100L600,88Z" fill="#b3d1e7" stroke="#b3d1e7"/><path d="M586,41L600,88L666,43Z" fill="#aecfe6" stroke="#aecfe6"/><path d="M666,43L600,88L679,99Z" fill="#a8cde5" stroke="#a8cde5"/><path d="M666,43L679,99L716,52Z" fill="#a4cbe4" stroke="#a4cbe4"/><path d="M716,52L679,99L729,111Z" fill="#9fc9e3" stroke="#9fc9e3"/><path d="M716,52L729,111L800,114Z" fill="#9ac7e2" stroke="#9ac7e2"/><path d="M716,52L800,114L824,16Z" fill="#99c6e1" stroke="#99c6e1"/><path d="M824,16L800,114L866,33Z" fill="#93c4df" stroke="#93c4df"/><path d="M866,33L800,114L888,87Z" fill="#8ec2df" stroke="#8ec2df"/><path d="M866,33L888,87L958,50Z" fill="#8cbfda" stroke="#8cbfda"/><path d="M958,50L888,87L936,115Z" fill="#88bbd8" stroke="#88bbd8"/><path d="M958,50L936,115L1031,100Z" fill="#84b7d4" stroke="#84b7d4"/><path d="M958,50L1031,100L1006,33Z" fill="#85b6d2" stroke="#85b6d2"/><path d="M1006,33L1031,100L1083,43Z" fill="#83b2cf" stroke="#83b2cf"/><path d="M1083,43L1031,100L1079,93Z" fill="#7fb0cc" stroke="#7fb0cc"/><path d="M1083,43L1079,93L1137,91Z" fill="#7dacc9" stroke="#7dacc9"/><path d="M1083,43L1137,91L1160,36Z" fill="#7dabc7" stroke="#7dabc7"/><path d="M1160,36L1137,91L1218,100Z" fill="#79a6c3" stroke="#79a6c3"/><path d="M1160,36L1218,100L1234,47Z" fill="#7aa4c0" stroke="#7aa4c0"/><path d="M1234,47L1218,100L1301,100Z" fill="#789fbc" stroke="#789fbc"/><path d="M1234,47L1301,100L1314,37Z" fill="#7a9dba" stroke="#7a9dba"/><path d="M1314,37L1301,100L1347,111Z" fill="#7898b6" stroke="#7898b6"/><path d="M1314,37L1347,111L1378,32Z" fill="#7a97b4" stroke="#7a97b4"/><path d="M1378,32L1347,111L1420,115Z" fill="#7893b1" stroke="#7893b1"/><path d="M1378,32L1420,115L1440,21Z" fill="#7a92ae" stroke="#7a92ae"/><path d="M1440,21L1420,115L1524,107Z" fill="#788caa" stroke="#788caa"/><path d="M1440,21L1524,107L1511,17Z" fill="#7b8ba8" stroke="#7b8ba8"/><path d="M-55,91L-50,539L-52,168Z" fill="#d1e5fa" stroke="#d1e5fa"/><path d="M-55,91L-52,168L21,86Z" fill="#f0f3fc" stroke="#f0f3fc"/><path d="M21,86L-52,168L30,192Z" fill="#eaf0fb" stroke="#eaf0fb"/><path d="M21,86L30,192L90,123Z" fill="#e7edf9" stroke="#e7edf9"/><path d="M90,123L30,192L109,167Z" fill="#e2eaf8" stroke="#e2eaf8"/><path d="M90,123L109,167L178,113Z" fill="#e0e8f6" stroke="#e0e8f6"/><path d="M178,113L109,167L171,162Z" fill="#dce6f5" stroke="#dce6f5"/><path d="M178,113L171,162L230,118Z" fill="#dae4f4" stroke="#dae4f4"/><path d="M230,118L171,162L256,188Z" fill="#d5e1f3" stroke="#d5e1f3"/><path d="M230,118L256,188L316,111Z" fill="#d3dff1" stroke="#d3dff1"/><path d="M316,111L256,188L322,179Z" fill="#cddcf0" stroke="#cddcf0"/><path d="M316,111L322,179L365,183Z" fill="#c9daef" stroke="#c9daef"/><path d="M316,111L365,183L393,118Z" fill="#c8daee" stroke="#c8daee"/><path d="M393,118L365,183L462,170Z" fill="#bfd6ec" stroke="#bfd6ec"/><path d="M393,118L462,170L463,103Z" fill="#bed5eb" stroke="#bed5eb"/><path d="M463,103L462,170L508,157Z" fill="#b8d2ea" stroke="#b8d2ea"/><path d="M463,103L508,157L507,100Z" fill="#b8d3ea" stroke="#b8d3ea"/><path d="M507,100L508,157L584,160Z" fill="#b1d0e8" stroke="#b1d0e8"/><path d="M507,100L584,160L600,88Z" fill="#afcfe7" stroke="#afcfe7"/><path d="M600,88L584,160L651,175Z" fill="#a7cce6" stroke="#a7cce6"/><path d="M600,88L651,175L679,99Z" fill="#a5cbe5" stroke="#a5cbe5"/><path d="M679,99L651,175L719,161Z" fill="#9dc7e4" stroke="#9dc7e4"/><path d="M679,99L719,161L729,111Z" fill="#9cc7e3" stroke="#9cc7e3"/><path d="M729,111L719,161L800,114Z" fill="#96c5e2" stroke="#96c5e2"/><path d="M800,114L719,161L792,192Z" fill="#91c2e1" stroke="#91c2e1"/><path d="M800,114L792,192L882,180Z" fill="#89bfe0" stroke="#89bfe0"/><path d="M800,114L882,180L888,87Z" fill="#89bfde" stroke="#89bfde"/><path d="M888,87L882,180L936,115Z" fill="#86bbda" stroke="#86bbda"/><path d="M936,115L882,180L954,173Z" fill="#81b8d9" stroke="#81b8d9"/><path d="M936,115L954,173L1031,100Z" fill="#80b5d4" stroke="#80b5d4"/><path d="M1031,100L954,173L1017,188Z" fill="#7db1d2" stroke="#7db1d2"/><path d="M1031,100L1017,188L1073,176Z" fill="#7aaecf" stroke="#7aaecf"/><path d="M1031,100L1073,176L1079,93Z" fill="#7badcd" stroke="#7badcd"/><path d="M1079,93L1073,176L1155,160Z" fill="#77a9c9" stroke="#77a9c9"/><path d="M1079,93L1155,160L1137,91Z" fill="#78a8c7" stroke="#78a8c7"/><path d="M1137,91L1155,160L1218,100Z" fill="#75a4c3" stroke="#75a4c3"/><path d="M1218,100L1155,160L1239,172Z" fill="#72a0c0" stroke="#72a0c0"/><path d="M1218,100L1239,172L1301,100Z" fill="#749cbc" stroke="#749cbc"/><path d="M1301,100L1239,172L1293,186Z" fill="#7199ba" stroke="#7199ba"/><path d="M1301,100L1293,186L1347,111Z" fill="#7397b7" stroke="#7397b7"/><path d="M1347,111L1293,186L1365,177Z" fill="#7194b5" stroke="#7194b5"/><path d="M1347,111L1365,177L1420,115Z" fill="#7391b1" stroke="#7391b1"/><path d="M1420,115L1365,177L1435,192Z" fill="#708daf" stroke="#708daf"/><path d="M1420,115L1435,192L1512,185Z" fill="#6f89ab" stroke="#6f89ab"/><path d="M1420,115L1512,185L1524,107Z" fill="#7387a8" stroke="#7387a8"/><path d="M1524,107L1512,185L1506,299Z" fill="#667fa5" stroke="#667fa5"/><path d="M1524,107L1506,299L1510,472Z" fill="#4c74a2" stroke="#4c74a2"/><path d="M1524,107L1510,472L1516,607Z" fill="#2f689c" stroke="#2f689c"/><path d="M1524,107L1516,607L1518,663Z" fill="#1e6198" stroke="#1e6198"/><path d="M1524,107L1518,663L1517,862Z" fill="#16518a" stroke="#16518a"/><path d="M-52,168L-50,539L-42,378Z" fill="#b6daf6" stroke="#b6daf6"/><path d="M-52,168L-42,378L-41,242Z" fill="#d0e5fa" stroke="#d0e5fa"/><path d="M-52,168L-41,242L30,192Z" fill="#e0ebfb" stroke="#e0ebfb"/><path d="M30,192L-41,242L33,250Z" fill="#d5e6f8" stroke="#d5e6f8"/><path d="M30,192L33,250L98,240Z" fill="#d1e3f7" stroke="#d1e3f7"/><path d="M30,192L98,240L109,167Z" fill="#d7e5f7" stroke="#d7e5f7"/><path d="M109,167L98,240L172,250Z" fill="#cde0f5" stroke="#cde0f5"/><path d="M109,167L172,250L171,162Z" fill="#d2e1f4" stroke="#d2e1f4"/><path d="M171,162L172,250L247,227Z" fill="#c8dbf2" stroke="#c8dbf2"/><path d="M171,162L247,227L256,188Z" fill="#cbddf1" stroke="#cbddf1"/><path d="M256,188L247,227L327,245Z" fill="#bfd6ef" stroke="#bfd6ef"/><path d="M256,188L327,245L322,179Z" fill="#c0d6ef" stroke="#c0d6ef"/><path d="M322,179L327,245L365,183Z" fill="#bcd4ee" stroke="#bcd4ee"/><path d="M365,183L327,245L391,234Z" fill="#b4d1ec" stroke="#b4d1ec"/><path d="M365,183L391,234L462,170Z" fill="#b5d1eb" stroke="#b5d1eb"/><path d="M462,170L391,234L468,258Z" fill="#aaccea" stroke="#aaccea"/><path d="M462,170L468,258L540,247Z" fill="#a2c9e8" stroke="#a2c9e8"/><path d="M462,170L540,247L508,157Z" fill="#aacce8" stroke="#aacce8"/><path d="M508,157L540,247L584,160Z" fill="#a5cbe7" stroke="#a5cbe7"/><path d="M584,160L540,247L586,230Z" fill="#9bc6e6" stroke="#9bc6e6"/><path d="M584,160L586,230L651,175Z" fill="#9dc7e5" stroke="#9dc7e5"/><path d="M651,175L586,230L649,240Z" fill="#93c3e4" stroke="#93c3e4"/><path d="M651,175L649,240L724,241Z" fill="#8dc0e3" stroke="#8dc0e3"/><path d="M651,175L724,241L719,161Z" fill="#91c2e2" stroke="#91c2e2"/><path d="M719,161L724,241L792,192Z" fill="#89bfe1" stroke="#89bfe1"/><path d="M792,192L724,241L805,226Z" fill="#7fbbe0" stroke="#7fbbe0"/><path d="M792,192L805,226L882,180Z" fill="#7ebbdf" stroke="#7ebbdf"/><path d="M882,180L805,226L866,261Z" fill="#75b6dd" stroke="#75b6dd"/><path d="M882,180L866,261L933,257Z" fill="#6fb2d9" stroke="#6fb2d9"/><path d="M882,180L933,257L954,173Z" fill="#75b3d8" stroke="#75b3d8"/><path d="M954,173L933,257L1005,246Z" fill="#6cacd4" stroke="#6cacd4"/><path d="M954,173L1005,246L1017,188Z" fill="#71acd2" stroke="#71acd2"/><path d="M1017,188L1005,246L1100,233Z" fill="#68a6cd" stroke="#68a6cd"/><path d="M1017,188L1100,233L1073,176Z" fill="#6ca7cc" stroke="#6ca7cc"/><path d="M1073,176L1100,233L1155,160Z" fill="#6ca4c8" stroke="#6ca4c8"/><path d="M1155,160L1100,233L1139,264Z" fill="#629ec5" stroke="#629ec5"/><path d="M1155,160L1139,264L1213,247Z" fill="#5f9ac2" stroke="#5f9ac2"/><path d="M1155,160L1213,247L1239,172Z" fill="#679bc0" stroke="#679bc0"/><path d="M1239,172L1213,247L1293,186Z" fill="#6596bc" stroke="#6596bc"/><path d="M1293,186L1213,247L1309,264Z" fill="#5c90b9" stroke="#5c90b9"/><path d="M1293,186L1309,264L1365,177Z" fill="#638eb5" stroke="#638eb5"/><path d="M1365,177L1309,264L1368,260Z" fill="#5c89b2" stroke="#5c89b2"/><path d="M1365,177L1368,260L1423,243Z" fill="#5e87af" stroke="#5e87af"/><path d="M1365,177L1423,243L1435,192Z" fill="#6488ae" stroke="#6488ae"/><path d="M1435,192L1423,243L1491,255Z" fill="#5d81a9" stroke="#5d81a9"/><path d="M1435,192L1491,255L1512,185Z" fill="#6281a7" stroke="#6281a7"/><path d="M1512,185L1491,255L1506,299Z" fill="#587aa5" stroke="#587aa5"/><path d="M-41,242L-42,378L-34,297Z" fill="#c4e0f9" stroke="#c4e0f9"/><path d="M-41,242L-34,297L33,250Z" fill="#cee3f9" stroke="#cee3f9"/><path d="M33,250L-34,297L22,297Z" fill="#c7e0f7" stroke="#c7e0f7"/><path d="M33,250L22,297L90,300Z" fill="#c3ddf6" stroke="#c3ddf6"/><path d="M33,250L90,300L98,240Z" fill="#c6ddf6" stroke="#c6ddf6"/><path d="M98,240L90,300L172,250Z" fill="#c1daf4" stroke="#c1daf4"/><path d="M172,250L90,300L188,314Z" fill="#b8d5f2" stroke="#b8d5f2"/><path d="M172,250L188,314L247,227Z" fill="#bad5f1" stroke="#bad5f1"/><path d="M247,227L188,314L260,313Z" fill="#b1d1ef" stroke="#b1d1ef"/><path d="M247,227L260,313L300,297Z" fill="#afcfee" stroke="#afcfee"/><path d="M247,227L300,297L327,245Z" fill="#b3d0ee" stroke="#b3d0ee"/><path d="M327,245L300,297L382,334Z" fill="#a4c9eb" stroke="#a4c9eb"/><path d="M327,245L382,334L391,234Z" fill="#a6caeb" stroke="#a6caeb"/><path d="M391,234L382,334L448,334Z" fill="#98c4e9" stroke="#98c4e9"/><path d="M391,234L448,334L468,258Z" fill="#9bc6e8" stroke="#9bc6e8"/><path d="M468,258L448,334L513,328Z" fill="#8ebfe6" stroke="#8ebfe6"/><path d="M468,258L513,328L540,247Z" fill="#92c1e6" stroke="#92c1e6"/><path d="M540,247L513,328L581,307Z" fill="#88bde4" stroke="#88bde4"/><path d="M540,247L581,307L586,230Z" fill="#8ec0e5" stroke="#8ec0e5"/><path d="M586,230L581,307L649,240Z" fill="#8abee4" stroke="#8abee4"/><path d="M649,240L581,307L655,320Z" fill="#7fbae2" stroke="#7fbae2"/><path d="M649,240L655,320L731,299Z" fill="#79b7e1" stroke="#79b7e1"/><path d="M649,240L731,299L724,241Z" fill="#7eb9e1" stroke="#7eb9e1"/><path d="M724,241L731,299L805,226Z" fill="#78b7df" stroke="#78b7df"/><path d="M805,226L731,299L820,333Z" fill="#6cb2de" stroke="#6cb2de"/><path d="M805,226L820,333L855,299Z" fill="#67b0dd" stroke="#67b0dd"/><path d="M805,226L855,299L866,261Z" fill="#6bb2dd" stroke="#6bb2dd"/><path d="M866,261L855,299L926,300Z" fill="#61acd9" stroke="#61acd9"/><path d="M866,261L926,300L933,257Z" fill="#63abd7" stroke="#63abd7"/><path d="M933,257L926,300L996,306Z" fill="#5ca5d3" stroke="#5ca5d3"/><path d="M933,257L996,306L1005,246Z" fill="#5fa5d1" stroke="#5fa5d1"/><path d="M1005,246L996,306L1069,320Z" fill="#569fcc" stroke="#569fcc"/><path d="M1005,246L1069,320L1100,233Z" fill="#5a9fca" stroke="#5a9fca"/><path d="M1100,233L1069,320L1139,264Z" fill="#569ac6" stroke="#569ac6"/><path d="M1139,264L1069,320L1153,297Z" fill="#4e96c4" stroke="#4e96c4"/><path d="M1139,264L1153,297L1213,247Z" fill="#5295c0" stroke="#5295c0"/><path d="M1213,247L1153,297L1244,305Z" fill="#4e90bd" stroke="#4e90bd"/><path d="M1213,247L1244,305L1309,264Z" fill="#518db9" stroke="#518db9"/><path d="M1309,264L1244,305L1287,320Z" fill="#4b88b6" stroke="#4b88b6"/><path d="M1309,264L1287,320L1368,323Z" fill="#4983b3" stroke="#4983b3"/><path d="M1309,264L1368,323L1368,260Z" fill="#4f83b1" stroke="#4f83b1"/><path d="M1368,260L1368,323L1439,314Z" fill="#4a7dad" stroke="#4a7dad"/><path d="M1368,260L1439,314L1423,243Z" fill="#517fac" stroke="#517fac"/><path d="M1423,243L1439,314L1491,255Z" fill="#527ca8" stroke="#527ca8"/><path d="M1491,255L1439,314L1506,299Z" fill="#4d77a5" stroke="#4d77a5"/><path d="M-34,297L-42,378L22,297Z" fill="#bddcf7" stroke="#bddcf7"/><path d="M22,297L-42,378L52,405Z" fill="#b1d7f3" stroke="#b1d7f3"/><path d="M22,297L52,405L89,373Z" fill="#add4f2" stroke="#add4f2"/><path d="M22,297L89,373L90,300Z" fill="#b6d6f4" stroke="#b6d6f4"/><path d="M90,300L89,373L188,314Z" fill="#afd2f1" stroke="#afd2f1"/><path d="M188,314L89,373L181,379Z" fill="#a5ceef" stroke="#a5ceef"/><path d="M188,314L181,379L260,313Z" fill="#a5ccee" stroke="#a5ccee"/><path d="M260,313L181,379L231,404Z" fill="#9cc8eb" stroke="#9cc8eb"/><path d="M260,313L231,404L313,369Z" fill="#99c5ea" stroke="#99c5ea"/><path d="M260,313L313,369L300,297Z" fill="#a0c8ec" stroke="#a0c8ec"/><path d="M300,297L313,369L382,334Z" fill="#99c5ea" stroke="#99c5ea"/><path d="M382,334L313,369L371,401Z" fill="#8cc0e6" stroke="#8cc0e6"/><path d="M382,334L371,401L445,392Z" fill="#84bce5" stroke="#84bce5"/><path d="M382,334L445,392L448,334Z" fill="#87bde5" stroke="#87bde5"/><path d="M448,334L445,392L509,392Z" fill="#7db9e3" stroke="#7db9e3"/><path d="M448,334L509,392L513,328Z" fill="#80bae4" stroke="#80bae4"/><path d="M513,328L509,392L596,404Z" fill="#73b4e1" stroke="#73b4e1"/><path d="M513,328L596,404L581,307Z" fill="#77b6e1" stroke="#77b6e1"/><path d="M581,307L596,404L655,320Z" fill="#72b4e0" stroke="#72b4e0"/><path d="M655,320L596,404L676,367Z" fill="#69b0de" stroke="#69b0de"/><path d="M655,320L676,367L731,299Z" fill="#6cb2df" stroke="#6cb2df"/><path d="M731,299L676,367L737,376Z" fill="#64aedd" stroke="#64aedd"/><path d="M731,299L737,376L797,367Z" fill="#5facdc" stroke="#5facdc"/><path d="M731,299L797,367L820,333Z" fill="#5facdc" stroke="#5facdc"/><path d="M820,333L797,367L863,404Z" fill="#50a7d8" stroke="#50a7d8"/><path d="M820,333L863,404L855,299Z" fill="#54a8d9" stroke="#54a8d9"/><path d="M855,299L863,404L926,300Z" fill="#54a6d7" stroke="#54a6d7"/><path d="M926,300L863,404L928,404Z" fill="#49a1d3" stroke="#49a1d3"/><path d="M926,300L928,404L1007,378Z" fill="#479dcf" stroke="#479dcf"/><path d="M926,300L1007,378L996,306Z" fill="#4f9ecf" stroke="#4f9ecf"/><path d="M996,306L1007,378L1069,320Z" fill="#4a9acb" stroke="#4a9acb"/><path d="M1069,320L1007,378L1089,388Z" fill="#4094c6" stroke="#4094c6"/><path d="M1069,320L1089,388L1146,366Z" fill="#3e90c3" stroke="#3e90c3"/><path d="M1069,320L1146,366L1153,297Z" fill="#4591c3" stroke="#4591c3"/><path d="M1153,297L1146,366L1225,376Z" fill="#3d8bbd" stroke="#3d8bbd"/><path d="M1153,297L1225,376L1244,305Z" fill="#428abc" stroke="#428abc"/><path d="M1244,305L1225,376L1288,366Z" fill="#3c84b6" stroke="#3c84b6"/><path d="M1244,305L1288,366L1287,320Z" fill="#4184b5" stroke="#4184b5"/><path d="M1287,320L1288,366L1368,323Z" fill="#4080b1" stroke="#4080b1"/><path d="M1368,323L1288,366L1347,395Z" fill="#397bae" stroke="#397bae"/><path d="M1368,323L1347,395L1415,391Z" fill="#3677aa" stroke="#3677aa"/><path d="M1368,323L1415,391L1439,314Z" fill="#3e77a9" stroke="#3e77a9"/><path d="M1439,314L1415,391L1499,374Z" fill="#3972a4" stroke="#3972a4"/><path d="M1439,314L1499,374L1506,299Z" fill="#4272a3" stroke="#4272a3"/><path d="M1506,299L1499,374L1510,472Z" fill="#336a9e" stroke="#336a9e"/><path d="M-42,378L-50,539L-29,448Z" fill="#9bcfef" stroke="#9bcfef"/><path d="M-42,378L-29,448L52,405Z" fill="#a4d2f1" stroke="#a4d2f1"/><path d="M52,405L-29,448L50,474Z" fill="#99cdee" stroke="#99cdee"/><path d="M52,405L50,474L106,446Z" fill="#95caec" stroke="#95caec"/><path d="M52,405L106,446L89,373Z" fill="#9dccee" stroke="#9dccee"/><path d="M89,373L106,446L181,379Z" fill="#9bcbed" stroke="#9bcbed"/><path d="M181,379L106,446L183,465Z" fill="#90c5ea" stroke="#90c5ea"/><path d="M181,379L183,465L231,404Z" fill="#90c4e9" stroke="#90c4e9"/><path d="M231,404L183,465L241,453Z" fill="#87c0e7" stroke="#87c0e7"/><path d="M231,404L241,453L296,455Z" fill="#85bee6" stroke="#85bee6"/><path d="M231,404L296,455L313,369Z" fill="#8bc0e6" stroke="#8bc0e6"/><path d="M313,369L296,455L371,401Z" fill="#85bde5" stroke="#85bde5"/><path d="M371,401L296,455L381,437Z" fill="#7cb9e3" stroke="#7cb9e3"/><path d="M371,401L381,437L445,392Z" fill="#7bb9e3" stroke="#7bb9e3"/><path d="M445,392L381,437L471,444Z" fill="#73b5e1" stroke="#73b5e1"/><path d="M445,392L471,444L509,392Z" fill="#72b4e0" stroke="#72b4e0"/><path d="M509,392L471,444L537,447Z" fill="#69b1de" stroke="#69b1de"/><path d="M509,392L537,447L596,404Z" fill="#67b0de" stroke="#67b0de"/><path d="M596,404L537,447L603,445Z" fill="#5eacdb" stroke="#5eacdb"/><path d="M596,404L603,445L676,367Z" fill="#5faddc" stroke="#5faddc"/><path d="M676,367L603,445L681,475Z" fill="#55a9da" stroke="#55a9da"/><path d="M676,367L681,475L724,464Z" fill="#4ea6d8" stroke="#4ea6d8"/><path d="M676,367L724,464L737,376Z" fill="#55a8d9" stroke="#55a8d9"/><path d="M737,376L724,464L805,464Z" fill="#47a3d6" stroke="#47a3d6"/><path d="M737,376L805,464L797,367Z" fill="#4ca5d7" stroke="#4ca5d7"/><path d="M797,367L805,464L863,404Z" fill="#44a2d6" stroke="#44a2d6"/><path d="M863,404L805,464L861,469Z" fill="#389dd3" stroke="#389dd3"/><path d="M863,404L861,469L928,404Z" fill="#3b9cd1" stroke="#3b9cd1"/><path d="M928,404L861,469L962,442Z" fill="#3598ce" stroke="#3598ce"/><path d="M928,404L962,442L1007,378Z" fill="#3997cb" stroke="#3997cb"/><path d="M1007,378L962,442L998,451Z" fill="#3493c8" stroke="#3493c8"/><path d="M1007,378L998,451L1089,388Z" fill="#3691c6" stroke="#3691c6"/><path d="M1089,388L998,451L1089,459Z" fill="#2d8cc1" stroke="#2d8cc1"/><path d="M1089,388L1089,459L1147,438Z" fill="#2a88be" stroke="#2a88be"/><path d="M1089,388L1147,438L1146,366Z" fill="#318abe" stroke="#318abe"/><path d="M1146,366L1147,438L1225,376Z" fill="#3086ba" stroke="#3086ba"/><path d="M1225,376L1147,438L1232,453Z" fill="#2880b6" stroke="#2880b6"/><path d="M1225,376L1232,453L1288,366Z" fill="#2f7fb4" stroke="#2f7fb4"/><path d="M1288,366L1232,453L1280,467Z" fill="#267ab0" stroke="#267ab0"/><path d="M1288,366L1280,467L1347,395Z" fill="#2c79ae" stroke="#2c79ae"/><path d="M1347,395L1280,467L1362,445Z" fill="#2474aa" stroke="#2474aa"/><path d="M1347,395L1362,445L1415,391Z" fill="#2b73a8" stroke="#2b73a8"/><path d="M1415,391L1362,445L1453,447Z" fill="#276ea4" stroke="#276ea4"/><path d="M1415,391L1453,447L1499,374Z" fill="#2d6ca1" stroke="#2d6ca1"/><path d="M1499,374L1453,447L1510,472Z" fill="#26669c" stroke="#26669c"/><path d="M-29,448L-50,539L44,513Z" fill="#92c7e8" stroke="#92c7e8"/><path d="M-29,448L44,513L50,474Z" fill="#90c8eb" stroke="#90c8eb"/><path d="M50,474L44,513L112,505Z" fill="#8bc2e6" stroke="#8bc2e6"/><path d="M50,474L112,505L106,446Z" fill="#8ac5e9" stroke="#8ac5e9"/><path d="M106,446L112,505L183,465Z" fill="#87c2e8" stroke="#87c2e8"/><path d="M183,465L112,505L161,537Z" fill="#83bbe2" stroke="#83bbe2"/><path d="M183,465L161,537L241,513Z" fill="#7fb8e0" stroke="#7fb8e0"/><path d="M183,465L241,513L241,453Z" fill="#7ebce4" stroke="#7ebce4"/><path d="M241,453L241,513L296,455Z" fill="#7bbae3" stroke="#7bbae3"/><path d="M296,455L241,513L327,506Z" fill="#77b5df" stroke="#77b5df"/><path d="M296,455L327,506L381,437Z" fill="#74b6e1" stroke="#74b6e1"/><path d="M381,437L327,506L376,514Z" fill="#6eb2de" stroke="#6eb2de"/><path d="M381,437L376,514L438,534Z" fill="#69aedb" stroke="#69aedb"/><path d="M381,437L438,534L471,444Z" fill="#66b1de" stroke="#66b1de"/><path d="M471,444L438,534L543,533Z" fill="#5da7d6" stroke="#5da7d6"/><path d="M471,444L543,533L537,447Z" fill="#5aabdb" stroke="#5aabdb"/><path d="M537,447L543,533L579,513Z" fill="#55a5d5" stroke="#55a5d5"/><path d="M537,447L579,513L603,445Z" fill="#55a8da" stroke="#55a8da"/><path d="M603,445L579,513L681,475Z" fill="#4da5d7" stroke="#4da5d7"/><path d="M681,475L579,513L677,522Z" fill="#489fd1" stroke="#489fd1"/><path d="M681,475L677,522L724,464Z" fill="#439fd3" stroke="#439fd3"/><path d="M724,464L677,522L751,528Z" fill="#3f9bcf" stroke="#3f9bcf"/><path d="M724,464L751,528L805,464Z" fill="#3b9cd2" stroke="#3b9cd2"/><path d="M805,464L751,528L793,541Z" fill="#3696cc" stroke="#3696cc"/><path d="M805,464L793,541L861,469Z" fill="#3298cf" stroke="#3298cf"/><path d="M861,469L793,541L891,515Z" fill="#2e93ca" stroke="#2e93ca"/><path d="M861,469L891,515L962,442Z" fill="#2c95cc" stroke="#2c95cc"/><path d="M962,442L891,515L948,520Z" fill="#298fc6" stroke="#298fc6"/><path d="M962,442L948,520L998,451Z" fill="#2890c7" stroke="#2890c7"/><path d="M998,451L948,520L1011,523Z" fill="#2589c1" stroke="#2589c1"/><path d="M998,451L1011,523L1089,459Z" fill="#2389c1" stroke="#2389c1"/><path d="M1089,459L1011,523L1082,535Z" fill="#1f81b9" stroke="#1f81b9"/><path d="M1089,459L1082,535L1140,508Z" fill="#1c7fb6" stroke="#1c7fb6"/><path d="M1089,459L1140,508L1147,438Z" fill="#1e82ba" stroke="#1e82ba"/><path d="M1147,438L1140,508L1232,453Z" fill="#1c7eb6" stroke="#1c7eb6"/><path d="M1232,453L1140,508L1207,544Z" fill="#1876ae" stroke="#1876ae"/><path d="M1232,453L1207,544L1281,508Z" fill="#1872aa" stroke="#1872aa"/><path d="M1232,453L1281,508L1280,467Z" fill="#1a75ad" stroke="#1a75ad"/><path d="M1280,467L1281,508L1356,514Z" fill="#196ea6" stroke="#196ea6"/><path d="M1280,467L1356,514L1362,445Z" fill="#1a6fa7" stroke="#1a6fa7"/><path d="M1362,445L1356,514L1453,447Z" fill="#1b6ba3" stroke="#1b6ba3"/><path d="M1453,447L1356,514L1445,529Z" fill="#19639c" stroke="#19639c"/><path d="M1453,447L1445,529L1510,472Z" fill="#19629a" stroke="#19629a"/><path d="M1510,472L1445,529L1503,545Z" fill="#185a93" stroke="#185a93"/><path d="M1510,472L1503,545L1516,607Z" fill="#16538c" stroke="#16538c"/><path d="M-50,539L-39,871L-33,729Z" fill="#8aa0c2" stroke="#8aa0c2"/><path d="M-50,539L-33,729L-27,662Z" fill="#8dadcf" stroke="#8dadcf"/><path d="M-50,539L-27,662L-25,614Z" fill="#8fb4d6" stroke="#8fb4d6"/><path d="M-50,539L-25,614L30,591Z" fill="#8eb7d9" stroke="#8eb7d9"/><path d="M-50,539L30,591L44,513Z" fill="#8ebcde" stroke="#8ebcde"/><path d="M44,513L30,591L123,601Z" fill="#87b4d9" stroke="#87b4d9"/><path d="M44,513L123,601L112,505Z" fill="#86b8dd" stroke="#86b8dd"/><path d="M112,505L123,601L161,537Z" fill="#83b4da" stroke="#83b4da"/><path d="M161,537L123,601L188,587Z" fill="#7faed4" stroke="#7faed4"/><path d="M161,537L188,587L241,513Z" fill="#7db0d8" stroke="#7db0d8"/><path d="M241,513L188,587L227,589Z" fill="#7aacd4" stroke="#7aacd4"/><path d="M241,513L227,589L323,615Z" fill="#75a7d1" stroke="#75a7d1"/><path d="M241,513L323,615L327,506Z" fill="#73aad5" stroke="#73aad5"/><path d="M327,506L323,615L376,595Z" fill="#6ca2ce" stroke="#6ca2ce"/><path d="M327,506L376,595L376,514Z" fill="#6ba8d4" stroke="#6ba8d4"/><path d="M376,514L376,595L438,534Z" fill="#66a4d1" stroke="#66a4d1"/><path d="M438,534L376,595L462,607Z" fill="#619cca" stroke="#619cca"/><path d="M438,534L462,607L536,584Z" fill="#5a9ac9" stroke="#5a9ac9"/><path d="M438,534L536,584L543,533Z" fill="#589dcd" stroke="#589dcd"/><path d="M543,533L536,584L577,608Z" fill="#5196c7" stroke="#5196c7"/><path d="M543,533L577,608L579,513Z" fill="#509acb" stroke="#509acb"/><path d="M579,513L577,608L657,590Z" fill="#4a94c6" stroke="#4a94c6"/><path d="M579,513L657,590L677,522Z" fill="#4798cb" stroke="#4798cb"/><path d="M677,522L657,590L735,597Z" fill="#3f90c4" stroke="#3f90c4"/><path d="M677,522L735,597L751,528Z" fill="#3c92c7" stroke="#3c92c7"/><path d="M751,528L735,597L786,587Z" fill="#368cc2" stroke="#368cc2"/><path d="M751,528L786,587L793,541Z" fill="#358fc5" stroke="#358fc5"/><path d="M793,541L786,587L894,586Z" fill="#2e89c0" stroke="#2e89c0"/><path d="M793,541L894,586L891,515Z" fill="#2b8bc3" stroke="#2b8bc3"/><path d="M891,515L894,586L943,581Z" fill="#2784bc" stroke="#2784bc"/><path d="M891,515L943,581L948,520Z" fill="#2787be" stroke="#2787be"/><path d="M948,520L943,581L1011,523Z" fill="#2483ba" stroke="#2483ba"/><path d="M1011,523L943,581L1025,598Z" fill="#217cb3" stroke="#217cb3"/><path d="M1011,523L1025,598L1082,535Z" fill="#1e7ab2" stroke="#1e7ab2"/><path d="M1082,535L1025,598L1092,605Z" fill="#1b73ab" stroke="#1b73ab"/><path d="M1082,535L1092,605L1138,609Z" fill="#186fa7" stroke="#186fa7"/><path d="M1082,535L1138,609L1140,508Z" fill="#1974ab" stroke="#1974ab"/><path d="M1140,508L1138,609L1207,544Z" fill="#166fa7" stroke="#166fa7"/><path d="M1207,544L1138,609L1223,603Z" fill="#14679f" stroke="#14679f"/><path d="M1207,544L1223,603L1285,576Z" fill="#15659d" stroke="#15659d"/><path d="M1207,544L1285,576L1281,508Z" fill="#1669a1" stroke="#1669a1"/><path d="M1281,508L1285,576L1356,514Z" fill="#17679e" stroke="#17679e"/><path d="M1356,514L1285,576L1382,614Z" fill="#155d95" stroke="#155d95"/><path d="M1356,514L1382,614L1445,529Z" fill="#165b93" stroke="#165b93"/><path d="M1445,529L1382,614L1430,606Z" fill="#14538b" stroke="#14538b"/><path d="M1445,529L1430,606L1503,545Z" fill="#15548c" stroke="#15548c"/><path d="M1503,545L1430,606L1516,607Z" fill="#144d85" stroke="#144d85"/><path d="M-25,614L-27,662L17,675Z" fill="#8aaacc" stroke="#8aaacc"/><path d="M-25,614L17,675L30,591Z" fill="#8aadd0" stroke="#8aadd0"/><path d="M30,591L17,675L92,670Z" fill="#86a7cb" stroke="#86a7cb"/><path d="M30,591L92,670L123,601Z" fill="#83a9ce" stroke="#83a9ce"/><path d="M123,601L92,670L190,672Z" fill="#7da1c7" stroke="#7da1c7"/><path d="M123,601L190,672L188,587Z" fill="#7ba4cb" stroke="#7ba4cb"/><path d="M188,587L190,672L227,589Z" fill="#79a3cb" stroke="#79a3cb"/><path d="M227,589L190,672L238,664Z" fill="#769dc5" stroke="#769dc5"/><path d="M227,589L238,664L323,615Z" fill="#739ec7" stroke="#739ec7"/><path d="M323,615L238,664L314,659Z" fill="#6f97c2" stroke="#6f97c2"/><path d="M323,615L314,659L390,674Z" fill="#6893c0" stroke="#6893c0"/><path d="M323,615L390,674L376,595Z" fill="#6697c3" stroke="#6697c3"/><path d="M376,595L390,674L462,607Z" fill="#6195c2" stroke="#6195c2"/><path d="M462,607L390,674L459,660Z" fill="#5c8fbd" stroke="#5c8fbd"/><path d="M462,607L459,660L522,683Z" fill="#568cbb" stroke="#568cbb"/><path d="M462,607L522,683L536,584Z" fill="#548fbf" stroke="#548fbf"/><path d="M536,584L522,683L577,608Z" fill="#4f8dbe" stroke="#4f8dbe"/><path d="M577,608L522,683L594,676Z" fill="#4b86b7" stroke="#4b86b7"/><path d="M577,608L594,676L650,648Z" fill="#4686b9" stroke="#4686b9"/><path d="M577,608L650,648L657,590Z" fill="#458abd" stroke="#458abd"/><path d="M657,590L650,648L735,597Z" fill="#3e88bc" stroke="#3e88bc"/><path d="M735,597L650,648L754,667Z" fill="#3982b6" stroke="#3982b6"/><path d="M735,597L754,667L786,587Z" fill="#3484b9" stroke="#3484b9"/><path d="M786,587L754,667L798,673Z" fill="#307db3" stroke="#307db3"/><path d="M786,587L798,673L870,651Z" fill="#2b7cb3" stroke="#2b7cb3"/><path d="M786,587L870,651L894,586Z" fill="#2980b8" stroke="#2980b8"/><path d="M894,586L870,651L959,664Z" fill="#2376ae" stroke="#2376ae"/><path d="M894,586L959,664L943,581Z" fill="#2379b0" stroke="#2379b0"/><path d="M943,581L959,664L1025,598Z" fill="#2074ac" stroke="#2074ac"/><path d="M1025,598L959,664L1028,668Z" fill="#1c6ca4" stroke="#1c6ca4"/><path d="M1025,598L1028,668L1092,605Z" fill="#1a6ca4" stroke="#1a6ca4"/><path d="M1092,605L1028,668L1081,676Z" fill="#17659d" stroke="#17659d"/><path d="M1092,605L1081,676L1138,609Z" fill="#16669e" stroke="#16669e"/><path d="M1138,609L1081,676L1169,675Z" fill="#135f97" stroke="#135f97"/><path d="M1138,609L1169,675L1223,603Z" fill="#126098" stroke="#126098"/><path d="M1223,603L1169,675L1226,664Z" fill="#115a92" stroke="#115a92"/><path d="M1223,603L1226,664L1287,675Z" fill="#11568e" stroke="#11568e"/><path d="M1223,603L1287,675L1285,576Z" fill="#125a92" stroke="#125a92"/><path d="M1285,576L1287,675L1382,614Z" fill="#12558d" stroke="#12558d"/><path d="M1382,614L1287,675L1376,681Z" fill="#114c84" stroke="#114c84"/><path d="M1382,614L1376,681L1441,650Z" fill="#114981" stroke="#114981"/><path d="M1382,614L1441,650L1430,606Z" fill="#124b84" stroke="#124b84"/><path d="M1430,606L1441,650L1516,607Z" fill="#124881" stroke="#124881"/><path d="M1516,607L1441,650L1518,663Z" fill="#11427b" stroke="#11427b"/><path d="M-27,662L-33,729L17,675Z" fill="#89a3c5" stroke="#89a3c5"/><path d="M17,675L-33,729L54,723Z" fill="#859dc0" stroke="#859dc0"/><path d="M17,675L54,723L92,670Z" fill="#829ec3" stroke="#829ec3"/><path d="M92,670L54,723L97,742Z" fill="#7f98bd" stroke="#7f98bd"/><path d="M92,670L97,742L157,731Z" fill="#7c96bb" stroke="#7c96bb"/><path d="M92,670L157,731L190,672Z" fill="#7a98bf" stroke="#7a98bf"/><path d="M190,672L157,731L230,740Z" fill="#7591b9" stroke="#7591b9"/><path d="M190,672L230,740L238,664Z" fill="#7393bc" stroke="#7393bc"/><path d="M238,664L230,740L314,659Z" fill="#6f91bb" stroke="#6f91bb"/><path d="M314,659L230,740L325,754Z" fill="#6b89b5" stroke="#6b89b5"/><path d="M314,659L325,754L390,674Z" fill="#668bb7" stroke="#668bb7"/><path d="M390,674L325,754L397,733Z" fill="#6184b2" stroke="#6184b2"/><path d="M390,674L397,733L459,660Z" fill="#5c88b6" stroke="#5c88b6"/><path d="M459,660L397,733L457,751Z" fill="#5982b0" stroke="#5982b0"/><path d="M459,660L457,751L522,683Z" fill="#5483b2" stroke="#5483b2"/><path d="M522,683L457,751L541,744Z" fill="#4f7cac" stroke="#4f7cac"/><path d="M522,683L541,744L594,676Z" fill="#4a7eaf" stroke="#4a7eaf"/><path d="M594,676L541,744L607,723Z" fill="#467aac" stroke="#467aac"/><path d="M594,676L607,723L650,648Z" fill="#437eb1" stroke="#437eb1"/><path d="M650,648L607,723L653,746Z" fill="#3f79ac" stroke="#3f79ac"/><path d="M650,648L653,746L721,752Z" fill="#3a75a9" stroke="#3a75a9"/><path d="M650,648L721,752L754,667Z" fill="#3778ad" stroke="#3778ad"/><path d="M754,667L721,752L801,747Z" fill="#2f70a5" stroke="#2f70a5"/><path d="M754,667L801,747L798,673Z" fill="#2d73a9" stroke="#2d73a9"/><path d="M798,673L801,747L889,752Z" fill="#266ba3" stroke="#266ba3"/><path d="M798,673L889,752L870,651Z" fill="#2470a8" stroke="#2470a8"/><path d="M870,651L889,752L929,733Z" fill="#2069a0" stroke="#2069a0"/><path d="M870,651L929,733L959,664Z" fill="#206ca4" stroke="#206ca4"/><path d="M959,664L929,733L1000,724Z" fill="#1c649c" stroke="#1c649c"/><path d="M959,664L1000,724L1028,668Z" fill="#1b659d" stroke="#1b659d"/><path d="M1028,668L1000,724L1081,676Z" fill="#186199" stroke="#186199"/><path d="M1081,676L1000,724L1102,721Z" fill="#155b93" stroke="#155b93"/><path d="M1081,676L1102,721L1169,675Z" fill="#125991" stroke="#125991"/><path d="M1169,675L1102,721L1172,730Z" fill="#0f538b" stroke="#0f538b"/><path d="M1169,675L1172,730L1226,722Z" fill="#0e5088" stroke="#0e5088"/><path d="M1169,675L1226,722L1226,664Z" fill="#0f528a" stroke="#0f528a"/><path d="M1226,664L1226,722L1287,675Z" fill="#0f4f87" stroke="#0f4f87"/><path d="M1287,675L1226,722L1292,729Z" fill="#0e4981" stroke="#0e4981"/><path d="M1287,675L1292,729L1376,681Z" fill="#0f477f" stroke="#0f477f"/><path d="M1376,681L1292,729L1384,728Z" fill="#0e4079" stroke="#0e4079"/><path d="M1376,681L1384,728L1418,721Z" fill="#0e3d76" stroke="#0e3d76"/><path d="M1376,681L1418,721L1441,650Z" fill="#0f4079" stroke="#0f4079"/><path d="M1441,650L1418,721L1518,663Z" fill="#0f3e76" stroke="#0f3e76"/><path d="M1518,663L1418,721L1516,746Z" fill="#0e356e" stroke="#0e356e"/><path d="M1518,663L1516,746L1517,862Z" fill="#0b2a62" stroke="#0b2a62"/><path d="M-33,729L-39,871L-17,812Z" fill="#848eb0" stroke="#848eb0"/><path d="M-33,729L-17,812L54,723Z" fill="#8495b8" stroke="#8495b8"/><path d="M54,723L-17,812L42,824Z" fill="#808eb1" stroke="#808eb1"/><path d="M54,723L42,824L95,800Z" fill="#7d8cb1" stroke="#7d8cb1"/><path d="M54,723L95,800L97,742Z" fill="#7d90b5" stroke="#7d90b5"/><path d="M97,742L95,800L163,791Z" fill="#788ab0" stroke="#788ab0"/><path d="M97,742L163,791L157,731Z" fill="#788cb3" stroke="#788cb3"/><path d="M157,731L163,791L230,740Z" fill="#738ab1" stroke="#738ab1"/><path d="M230,740L163,791L244,789Z" fill="#7084ad" stroke="#7084ad"/><path d="M230,740L244,789L325,754Z" fill="#6b83ad" stroke="#6b83ad"/><path d="M325,754L244,789L309,790Z" fill="#687ea9" stroke="#687ea9"/><path d="M325,754L309,790L374,803Z" fill="#627ba7" stroke="#627ba7"/><path d="M325,754L374,803L397,733Z" fill="#5f7daa" stroke="#5f7daa"/><path d="M397,733L374,803L441,799Z" fill="#5977a5" stroke="#5977a5"/><path d="M397,733L441,799L457,751Z" fill="#5779a8" stroke="#5779a8"/><path d="M457,751L441,799L508,818Z" fill="#5172a1" stroke="#5172a1"/><path d="M457,751L508,818L541,744Z" fill="#4d73a4" stroke="#4d73a4"/><path d="M541,744L508,818L586,812Z" fill="#476d9f" stroke="#476d9f"/><path d="M541,744L586,812L607,723Z" fill="#4472a3" stroke="#4472a3"/><path d="M607,723L586,812L653,746Z" fill="#3f6fa2" stroke="#3f6fa2"/><path d="M653,746L586,812L661,801Z" fill="#3b699d" stroke="#3b699d"/><path d="M653,746L661,801L721,752Z" fill="#376b9f" stroke="#376b9f"/><path d="M721,752L661,801L718,814Z" fill="#33669a" stroke="#33669a"/><path d="M721,752L718,814L801,823Z" fill="#2c6298" stroke="#2c6298"/><path d="M721,752L801,823L801,747Z" fill="#2a659b" stroke="#2a659b"/><path d="M801,747L801,823L877,802Z" fill="#235f97" stroke="#235f97"/><path d="M801,747L877,802L889,752Z" fill="#20629a" stroke="#20629a"/><path d="M889,752L877,802L932,807Z" fill="#1c5a92" stroke="#1c5a92"/><path d="M889,752L932,807L929,733Z" fill="#1c5d95" stroke="#1c5d95"/><path d="M929,733L932,807L1000,724Z" fill="#1a5b93" stroke="#1a5b93"/><path d="M1000,724L932,807L1033,797Z" fill="#16548c" stroke="#16548c"/><path d="M1000,724L1033,797L1102,721Z" fill="#14558d" stroke="#14558d"/><path d="M1102,721L1033,797L1071,812Z" fill="#114d86" stroke="#114d86"/><path d="M1102,721L1071,812L1147,792Z" fill="#0f4a83" stroke="#0f4a83"/><path d="M1102,721L1147,792L1172,730Z" fill="#0d4c85" stroke="#0d4c85"/><path d="M1172,730L1147,792L1244,821Z" fill="#0a427a" stroke="#0a427a"/><path d="M1172,730L1244,821L1226,722Z" fill="#0b447d" stroke="#0b447d"/><path d="M1226,722L1244,821L1302,788Z" fill="#0a3d75" stroke="#0a3d75"/><path d="M1226,722L1302,788L1292,729Z" fill="#0c4179" stroke="#0c4179"/><path d="M1292,729L1302,788L1384,728Z" fill="#0c3c75" stroke="#0c3c75"/><path d="M1384,728L1302,788L1371,813Z" fill="#0a346d" stroke="#0a346d"/><path d="M1384,728L1371,813L1444,811Z" fill="#0a2f68" stroke="#0a2f68"/><path d="M1384,728L1444,811L1418,721Z" fill="#0c336c" stroke="#0c336c"/><path d="M1418,721L1444,811L1516,746Z" fill="#0b2e67" stroke="#0b2e67"/><path d="M1516,746L1444,811L1505,824Z" fill="#0a255e" stroke="#0a255e"/><path d="M1516,746L1505,824L1517,862Z" fill="#092059" stroke="#092059"/><path d="M-17,812L-39,871L25,857Z" fill="#8084a8" stroke="#8084a8"/><path d="M-17,812L25,857L42,824Z" fill="#7f86aa" stroke="#7f86aa"/><path d="M42,824L25,857L85,885Z" fill="#7a7fa4" stroke="#7a7fa4"/><path d="M42,824L85,885L95,800Z" fill="#7981a7" stroke="#7981a7"/><path d="M95,800L85,885L168,875Z" fill="#757ba1" stroke="#757ba1"/><path d="M95,800L168,875L163,791Z" fill="#7480a7" stroke="#7480a7"/><path d="M163,791L168,875L251,858Z" fill="#6e79a1" stroke="#6e79a1"/><path d="M163,791L251,858L244,789Z" fill="#6d7ca6" stroke="#6d7ca6"/><path d="M244,789L251,858L309,790Z" fill="#6979a4" stroke="#6979a4"/><path d="M309,790L251,858L324,859Z" fill="#64739e" stroke="#64739e"/><path d="M309,790L324,859L374,803Z" fill="#6074a1" stroke="#6074a1"/><path d="M374,803L324,859L391,862Z" fill="#5c6e9b" stroke="#5c6e9b"/><path d="M374,803L391,862L441,799Z" fill="#58709e" stroke="#58709e"/><path d="M441,799L391,862L443,865Z" fill="#546a99" stroke="#546a99"/><path d="M441,799L443,865L508,818Z" fill="#4f6b9b" stroke="#4f6b9b"/><path d="M508,818L443,865L520,873Z" fill="#4b6595" stroke="#4b6595"/><path d="M508,818L520,873L586,812Z" fill="#466597" stroke="#466597"/><path d="M586,812L520,873L596,893Z" fill="#405f91" stroke="#405f91"/><path d="M586,812L596,893L661,801Z" fill="#3b6194" stroke="#3b6194"/><path d="M661,801L596,893L685,861Z" fill="#375d90" stroke="#375d90"/><path d="M661,801L685,861L718,814Z" fill="#326094" stroke="#326094"/><path d="M718,814L685,861L741,864Z" fill="#2e5a8f" stroke="#2e5a8f"/><path d="M718,814L741,864L801,823Z" fill="#2a5a91" stroke="#2a5a91"/><path d="M801,823L741,864L789,890Z" fill="#25558b" stroke="#25558b"/><path d="M801,823L789,890L859,858Z" fill="#20538a" stroke="#20538a"/><path d="M801,823L859,858L877,802Z" fill="#1e578f" stroke="#1e578f"/><path d="M877,802L859,858L926,864Z" fill="#1a5189" stroke="#1a5189"/><path d="M877,802L926,864L932,807Z" fill="#1a528a" stroke="#1a528a"/><path d="M932,807L926,864L1021,892Z" fill="#144880" stroke="#144880"/><path d="M932,807L1021,892L1033,797Z" fill="#134981" stroke="#134981"/><path d="M1033,797L1021,892L1071,812Z" fill="#10457d" stroke="#10457d"/><path d="M1071,812L1021,892L1088,872Z" fill="#0d3e77" stroke="#0d3e77"/><path d="M1071,812L1088,872L1147,792Z" fill="#0c417a" stroke="#0c417a"/><path d="M1147,792L1088,872L1160,860Z" fill="#0a3c74" stroke="#0a3c74"/><path d="M1147,792L1160,860L1244,821Z" fill="#083a73" stroke="#083a73"/><path d="M1244,821L1160,860L1230,871Z" fill="#07336b" stroke="#07336b"/><path d="M1244,821L1230,871L1300,883Z" fill="#062d66" stroke="#062d66"/><path d="M1244,821L1300,883L1302,788Z" fill="#083069" stroke="#083069"/><path d="M1302,788L1300,883L1362,871Z" fill="#072963" stroke="#072963"/><path d="M1302,788L1362,871L1371,813Z" fill="#082c65" stroke="#082c65"/><path d="M1371,813L1362,871L1454,869Z" fill="#07225b" stroke="#07225b"/><path d="M1371,813L1454,869L1444,811Z" fill="#08235d" stroke="#08235d"/><path d="M1444,811L1454,869L1505,824Z" fill="#071f58" stroke="#071f58"/><path d="M1505,824L1454,869L1517,862Z" fill="#071a53" stroke="#071a53"/><path d="M-39,871L85,885L25,857Z" fill="#7c7ea2" stroke="#7c7ea2"/><path d="M85,885L596,893L168,875Z" fill="#636a96" stroke="#636a96"/><path d="M168,875L596,893L391,862Z" fill="#576694" stroke="#576694"/><path d="M168,875L391,862L324,859Z" fill="#636d99" stroke="#636d99"/><path d="M168,875L324,859L251,858Z" fill="#68719b" stroke="#68719b"/><path d="M391,862L596,893L443,865Z" fill="#4b6192" stroke="#4b6192"/><path d="M443,865L596,893L520,873Z" fill="#455e90" stroke="#455e90"/><path d="M596,893L1021,892L789,890Z" fill="#214d84" stroke="#214d84"/><path d="M596,893L789,890L685,861Z" fill="#30558a" stroke="#30558a"/><path d="M685,861L789,890L741,864Z" fill="#2a548a" stroke="#2a548a"/><path d="M789,890L1021,892L926,864Z" fill="#174780" stroke="#174780"/><path d="M789,890L926,864L859,858Z" fill="#1b4e86" stroke="#1b4e86"/><path d="M1021,892L1300,883L1230,871Z" fill="#052f68" stroke="#052f68"/><path d="M1021,892L1230,871L1088,872Z" fill="#09366f" stroke="#09366f"/><path d="M1088,872L1230,871L1160,860Z" fill="#06346d" stroke="#06346d"/><path d="M1300,883L1454,869L1362,871Z" fill="#052059" stroke="#052059"/></g></svg>
